<!--?xml version="1.0" encoding="utf-8"?-->
<svg version="1.1" x="0px" y="0px" id="iconz04142789133111784024" viewBox="0 0 512 512" xmlns="http://www.w3.org/2000/svg" style="enable-background:new 0 0 512 512;" xml:space="preserve"><style type="text/css">
.baseF{fill:#FFDFCA}
.baseB{fill:#232256}
.eyeF{fill:#FFFFFF}
.eyeB{fill:#232256}
.eyeT{fill:#BDC7D6}
.hairF{fill:#FFFFFF}
.hairB{fill:#232256}
.hairU{fill:#5E7AA5}
.hairT{fill:#BDC7D6}
.noseF{fill:#FFDFCA}
.noseB{fill:#232256}
.noseU{fill:#5E7AA5}
.mayugeB{fill:#232256}
.mayugeU{fill:#5E7AA5}
.mayugeT{fill:#BDC7D6}
.mayugeF{fill:#FFFFFF}
.mouthF{fill:#FFFFFF}
.mouthB{fill:#232256}
.mouthT{fill:#BDC7D6}
.mouthU{fill:#5E7AA5}
.hatF{fill:#FFFFFF}
.hatB{fill:#232256}
.hatU{fill:#5E7AA5}
.hatT{fill:#BDC7D6}
.higeU{fill:#5E7AA5}
.higeB{fill:#232256}
.higeF{fill:#FFFFFF}
.bodyF{fill:#FFFFFF}
.bodyB{fill:#232256}
.bodyU{fill:#5E7AA5}
.bodyT{fill:#BDC7D6}
.bodyS{fill:#8DA6C9}
.bodyH{fill:#FFDFCA}
.glassF{fill:#FFFFFF}
.glassB{fill:#232256}
.glassT{fill:#BDC7D6}
.glassU{fill:#5E7AA5}
.kirakiraF{fill:#FFFFFF}
.kirakiraB{fill:#232256}
.kirakiraU{fill:#5E7AA5}
.kirakiraT{fill:#BDC7D6}
.kirakiraH{fill:#FFDFCA}
.backF{fill:#FFFFFF}
.backB{fill:#232256}
.backU{fill:#5E7AA5}
.backS{fill:#8DA6C9}
.backA{fill:#FFE38B}
.backG{fill:#EEEEEF}
.backC{fill:#19DB9F}
.backD{fill:#DBBCA1}
</style>
<g class="icosvg">
<g>
	<path class="bodyU" d="M462.885,645.417c0,0,0-42.135,0-73.971c4.425-117.086-58.551-168.828-129.766-200.789   c-18.129-9.741-20.552-10.697-77.135-11.47c-56.583,0.773-59.006,1.73-77.133,11.47c-71.356,31.957-134.242,84.017-129.767,200.789   c-0.002,31.836-0.002,73.971-0.002,73.971" style="fill: rgb(94, 122, 165);"></path>
	<path class="bodyB" d="M468.161,645.416c0,0,0-42.135,0-73.971c-0.002-37.185-3.752-66.337-12.52-91.03   c-17.803-59.258-92.527-104.336-120.321-114.566c-7.699-4.138-13.341-7.082-21.751-8.82c-10.833-2.237-25.778-2.672-57.587-3.121   c-28.284,0.394-43.241,0.797-53.8,2.436c-10.341,1.571-16.569,4.655-25.539,9.508c-28.556,10.599-102.56,55.577-120.315,114.564   c-8.771,24.692-12.521,53.844-12.523,91.029c0,31.836,0,73.971,0,73.971c0.108,6.87,10.423,6.993,10.554,0   c1.976-70.105-13.679-162.707,51.346-220.795c25.667-23.832,48.617-37.411,75.373-49.172c7.642-4.055,11.714-6.427,19.473-8.088   c9.102-1.925,23.696-2.48,55.431-2.898c28.204,0.378,42.879,0.843,52.174,2.309c9.704,1.553,13.891,3.975,22.736,8.679   c27.548,10.117,98.327,53.331,114.803,108.498c8.205,23.079,11.916,50.998,11.913,87.496c0,31.836,0,73.971,0,73.971   c0.056,6.817,10.445,7.025,10.554,0H468.161z" style="fill: rgb(35, 34, 86);"></path>
	<g>
		<path class="bodyB" d="M370.22,451.13c-0.321-12.509-17.069-52.823-17.74-54.93c-2.446-5.785-11.166-2.331-8.904,3.587l-0.001,0    c4.108,11.111,14.816,36.11,16.969,51.032c-6.697,5.475-19.335,9.56-27.328,12.656c-4.953,2.369-13.217,2.083-11.651,8.968    c0.812,2.524,3.516,3.912,6.04,3.1c0.016-0.006,0.776-0.25,2.045-0.675c4.202,10.285,10.307,24.491,11.73,35.657    c-17.567,15.94-50.614,43.401-71.698,61.32c-3.461,2.915-6.824,5.748-9,7.577c-4.749,4.12,1.264,11.339,6.178,7.348    c8.987-7.901,66.059-55.011,82.616-70.747c5.496-6.414-6.176-33.103-10.795-44.32c2.519-0.921,5.271-1.96,8.062-3.076    C354.396,464.949,370.123,460.676,370.22,451.13z" style="fill: rgb(35, 34, 86);"></path>
		<polygon class="bodyB" points="162.521,516.056 162.512,516.044 162.503,516.035   " style="fill: rgb(35, 34, 86);"></polygon>
		<path class="bodyB" d="M251.289,579.422c-17.758-15.116-58.604-48.987-80.694-68.898c1.521-11.559,7.345-24.874,11.759-35.741    c1.041,0.355,1.756,0.616,2.011,0.759c6.025,1.829,8.922-7.103,2.939-9.14c-5.614-1.982-28.302-9.184-35.874-15.563    c2.613-16.264,11.363-35.929,16.964-51.053c2.257-5.893-6.449-9.398-8.904-3.587l-0.001,0    c-0.999,2.141-12.461,32.217-14.824,41.051c-1.469,5.835-3.692,10.854-2.565,16.523l-0.006,0.002    c0.003,0.008,0.008,0.017,0.011,0.025c0.002,0.009,0.003,0.017,0.004,0.025l0.006-0.002c2.441,7.058,19.456,13.81,31.166,17.894    c-4.541,11.002-16.331,38.012-10.768,44.326c13.777,13.217,70.045,59.965,82.599,70.727    C249.977,590.737,256.067,583.582,251.289,579.422z" style="fill: rgb(35, 34, 86);"></path>
	</g>
</g>
<polygon class="bodyF" points="255.985,342.239 182.068,384.662 255.985,533.545 329.9,384.662 " style="fill: rgb(255, 255, 255);"></polygon>
<path class="bodyB" d="M254.955,331.991l-2.387,1.371l-77.838,44.672l80.224,161.589l80.227-161.589L254.955,331.991z   M187.347,381.861l67.61-38.802l67.606,38.803l-67.607,136.175L187.347,381.861z" style="fill: rgb(35, 34, 86);"></path>
<path class="bodyB" d="M271.084,423.47v72.112l-16.507,33.248l-15.75-31.726V423.47c8.903,2.556,18.407,3.524,27.455,1.169  C266.281,424.64,271.084,423.47,271.084,423.47z" style="fill: rgb(35, 34, 86);"></path>

<g>
	<g>
		<path class="baseF" d="M370.823,211.356h-1.083C365.238,142.075,331.823,86.563,256,86.563s-109.238,55.512-113.74,124.793h-1.083    c-14.838-8.773-36.38,8.079-32.988,28.425c7.12,42.712,9.938,53.302,22.629,59.714c6.476,3.272,12.413,3.389,12.413,3.389h1.277    c4.228,26.864,12.675,46.636,23.503,61.72c16.545,23.044,59.074,47.137,87.989,47.137c28.915,0,71.445-24.094,87.989-47.137    c10.828-15.084,19.275-34.856,23.503-61.72h1.277c0,0,5.937-0.117,12.413-3.389c12.689-6.413,15.509-17.002,22.629-59.714    C407.203,219.435,385.661,202.583,370.823,211.356z" style="fill: rgb(255, 223, 202);"></path>
		<path class="baseB" d="M400.197,213.073c-6.568-6.81-16.304-11.004-25.737-8.755C368.747,134.944,329.975,80.52,256,81.287    c-74.235-0.864-112.896,54.299-118.444,123.035c-19.995-4.34-38.258,16.759-34.57,36.339l-0.001-0.011    c3.584,21.412,6.032,34.84,9.469,44.398c3.786,12.939,15.561,21.371,27.56,22.815c3.49,21.313,12.227,44.344,23.712,59.82    c19.76,25.929,59.709,48.411,92.275,49.338c32.904-0.946,72.797-23.732,92.275-49.337c11.483-15.481,20.216-38.503,23.711-59.821    c20.682-3.122,27.736-17.588,31.679-37.926c1.673-7.721,3.343-17.25,5.35-29.287l0.001-0.009    C410.841,230.515,406.844,219.747,400.197,213.073z M398.606,238.914c-3.537,21.3-6.057,34.522-8.984,42.54    c-2.885,8.629-7.803,13.034-15.94,15.273c0.934-7.446,1.571-15.359,1.868-23.806c0.102-2.913-2.176-5.356-5.089-5.458    c-2.912-0.102-5.355,2.176-5.457,5.089c-0.741,21.097-3.625,38.545-8.037,53.102c-7.684,23.201-15.096,37.185-32.968,51.943    c-17.576,14.384-46.071,28.758-67.999,28.868c-29.641-1.047-66.146-22.057-83.704-44.938c-6.917-9.64-12.849-21.314-17.265-35.874    c-4.412-14.557-7.295-32.005-8.034-53.102c-0.347-6.881-10.641-6.633-10.547,0.37h-0.001c0.296,8.449,0.935,16.366,1.869,23.813    c-14.102-3.734-16.335-14.595-19.67-29.034c-1.611-7.396-3.355-17.378-5.343-29.308l0.087,0.509    c-2.538-12.803,10.263-28.169,23.402-23.817c-0.209,4.296-0.347,8.62-0.348,12.994c0,2.914,2.363,5.277,5.277,5.277    c2.913,0,5.277-2.363,5.277-5.277l0,0c-0.579-71.264,30.158-137.1,109.001-136.238c44.048-0.349,77.728,20.487,94.871,59.825    c9.632,21.733,14.134,48.146,14.128,76.414c0,2.914,2.362,5.277,5.277,5.277c2.913,0,5.277-2.363,5.277-5.277    c0-4.374-0.12-8.706-0.329-13.001C388.325,210.72,401.15,226.151,398.606,238.914z" style="fill: rgb(35, 34, 86);"></path>
	</g>
</g>

<g>
	<path class="higeB" d="M340.498,369.038c-4.043-7.971-15.885,7.08-18.969,7.08c-3.084,0-9.87-0.256-14.336,5.913
		c-4.466,6.169-13.424,7.404-19.593,3.703c-6.169-3.703-10.487,4.934-16.489,8.018c-6.004,3.084-15.111-9.253-15.111-9.253
		s-9.108,12.337-15.111,9.253c-6.002-3.084-10.321-11.721-16.489-8.018c-6.169,3.701-15.128,2.466-19.593-3.703
		c-4.466-6.169-11.251-5.913-14.336-5.913c-3.084,0-14.926-15.052-18.969-7.08c-5.389,10.62-6.85,43.938,3.546,37.305
		c10.397-6.63,18.507-2.775,20.358,5.398c1.85,8.175,7.348,19.896,15.703,16.195c8.355-3.703,12.382-10.216,20.693,0.703
		c8.311,10.92,14.521,12.609,24.198-2.555c9.676,15.164,15.887,13.474,24.198,2.555c8.311-10.92,12.337-4.406,20.693-0.703
		c8.355,3.701,13.853-8.02,15.703-16.195c1.85-8.173,9.961-12.028,20.357-5.398C347.348,412.976,345.888,379.657,340.498,369.038z" style="fill: rgb(35, 34, 86);"></path>
</g>


<g>
	<path class="hairB" d="M321.304,81.743c-5.953-8.588-31.791-16.88-56.848-19.828c-28.554-3.361-8.529,7.477-17.637,5.878
		c-9.914-1.744-26.951-2.747-41.48,2.016c-11.501,3.764-3.502,6.202-3.795,7.575c-7.54,0.825-23.812,4.195-26.77,6.956
		c-2.552,2.381,0.323,4.298,2.433,5.283c-23.452,15.131-38.595,36.37-44.873,57.83c-11.845,40.486-1.706,74.836-1.589,67.275
		c0,0,3.952,43.753,6.886,45.708c2.934,1.959,0.98,2.934,5.869-16.627c3.211-12.839,13.554-25.781,20.283-33.159
		c4.662-5.109,6.438-12.267,4.352-18.863c-0.956-3.023-2.374-6.609-4.46-10.781c-6.626-13.256,6.103-44.433,35.859-39.436
		c1.561,0.262,3.255,0.6,5.065,0.989c4.873,1.059,9.185,3.933,11.993,8.048c1.17,1.716,2.62,3.305,4.193,4.828
		c-1.465,1.514-2.548,3.052-2.442,4.322c0.335,4.022,14.079,4.022,14.079,4.022s-2.011,0.67-3.689,4.027
		c-1.568,3.136,17.742,0.394,20.191,0.038l0.199,0.028c-0.288,0.347-2.191,2.738-0.947,4.289c6.844-0.211,17.088-2.363,26.229-6.572
		c9.504-3.023,17.234-8.344,21.757-14.981c2.808-4.12,7.123-6.994,11.993-8.048c1.809-0.389,3.502-0.727,5.062-0.989
		c29.754-4.997,42.485,26.18,35.859,39.436c-2.086,4.172-3.504,7.758-4.46,10.781c-2.086,6.595-0.309,13.753,4.35,18.863
		c6.731,7.378,17.074,20.32,20.285,33.159c4.889,19.561,2.934,18.586,5.869,16.627c2.934-1.955,6.884-45.708,6.884-45.708
		c0.122,7.561,9.148-27.155-2.698-67.641C371.864,121.638,352.469,96.612,321.304,81.743z" style="fill: rgb(35, 34, 86);"></path>
</g>


<g>
	<path class="mouthB" d="M245.541,364.021c4.158,0.996,8.094,0.984,10.498,0.989l0.197,0.002l0.225-0.002l0.016-0.002l0,0
		c2.406-0.005,6.314,0.005,10.451-0.984c4.132-0.987,8.732-3.084,11.817-7.526c1.132-1.634,0.725-3.877-0.907-5.009
		c-1.634-1.134-3.877-0.727-5.009,0.907l-0.001-0.002c-1.711,2.477-4.42,3.86-7.582,4.627c-3.135,0.759-6.479,0.795-8.815,0.79
		l-0.229,0.002l-0.014,0.002l-0.15-0.002c-2.336,0.005-5.679-0.033-8.814-0.792c-3.162-0.766-5.871-2.152-7.581-4.627
		c-1.134-1.634-3.379-2.039-5.011-0.905c-1.634,1.132-2.039,3.377-0.905,5.011C236.812,360.936,241.41,363.034,245.541,364.021z" style="fill: rgb(35, 34, 86);"></path>
</g>


<g>
	<path class="noseB" d="M248.98,301.597c1.884,0,1.561,3.091,1.842,4.671c0.614,3.436,4.73,2.988,8.142,2.988
		c6.035,0,3.712,4.973,0,4.973c-3.715,0-12.537,1.062-12.537-2.653S245.066,301.597,248.98,301.597z" style="fill: rgb(35, 34, 86);"></path>
</g>


<g>
	<g>
		<circle class="eyeB" cx="206.641" cy="270.26" r="7.856" style="fill: rgb(35, 34, 86);"></circle>
		<circle class="eyeB" cx="305.36" cy="270.26" r="7.856" style="fill: rgb(35, 34, 86);"></circle>
	</g>
</g>


<g>
	<g>
		<path class="mayugeB" d="M241.551,235.967c-11.485,2.221-39.588-10.897-54.823-7.498c-15.235,3.399-10.204,14.875-3.008,13.583
			c7.195-1.292,25.874,0.704,38.872,1.39C235.589,244.128,241.597,241.741,241.551,235.967z" style="fill: rgb(35, 34, 86);"></path>
	</g>
	<g>
		<path class="mayugeB" d="M270.45,235.967c11.485,2.221,39.588-10.897,54.823-7.498c15.235,3.399,10.204,14.875,3.008,13.583
			s-25.874,0.704-38.872,1.39C276.412,244.128,270.403,241.741,270.45,235.967z" style="fill: rgb(35, 34, 86);"></path>
	</g>
</g>


<g>
	<path class="glassF" d="M242.627,249.007c-9.666-10.116-52.777-17.048-67.167-8.484c-14.395,8.559-4.8,41.456,4.795,48.234
		c9.595,6.783,44.109,5.166,53.883,2.245C247.422,287.027,248.528,255.19,242.627,249.007z" style="fill: rgb(255, 255, 255);"></path>
	<path class="glassF" d="M269.383,249.007c9.666-10.116,52.772-17.048,67.167-8.484c14.391,8.559,4.795,41.456-4.8,48.234
		c-9.595,6.783-44.105,5.166-53.878,2.245C264.588,287.027,263.477,255.19,269.383,249.007z" style="fill: rgb(255, 255, 255);"></path>
	<path class="glassB" d="M375.658,240.117l-28.812,9.602c-0.293-1.281-0.643-2.541-1.13-3.748c-1.399-3.495-3.771-6.663-7.228-8.709
		c-5.702-3.32-13.542-4.357-22.226-4.399c-9.386,0.004-19.691,1.397-28.661,3.7c-4.486,1.155-8.633,2.537-12.193,4.136
		c-3.56,1.615-6.545,3.388-8.766,5.686l0,0c0,0,0,0,0,0.001c-0.001,0-0.002,0.001-0.002,0.001l0,0
		c-1.909,2.07-2.788,4.594-3.485,7.516c-0.255,1.136-0.417,2.381-0.571,3.63h-13.167c-0.155-1.249-0.315-2.494-0.571-3.628
		c-0.696-2.924-1.573-5.446-3.477-7.516l-2.743,2.618l2.741-2.62c-2.222-2.3-5.208-4.073-8.769-5.688
		c-10.652-4.752-26.768-7.806-40.857-7.835c-8.687,0.043-16.527,1.078-22.225,4.402c-3.454,2.044-5.828,5.211-7.228,8.707
		c-0.485,1.206-0.837,2.466-1.13,3.746l-28.808-9.601c-1.988-0.662-4.134,0.411-4.796,2.398c-0.662,1.987,0.411,4.134,2.398,4.796
		l30.381,10.126c0.027,6.785,1.635,13.891,4.05,20.038c1.22,3.09,2.645,5.933,4.24,8.378c1.604,2.442,3.345,4.501,5.443,6
		c3.442,2.372,7.946,3.516,13.179,4.346c5.218,0.793,11.125,1.11,16.97,1.111c5.471,0,10.879-0.282,15.57-0.749
		c4.706-0.476,8.625-1.098,11.435-1.925c2.941-0.879,5.352-2.713,7.211-4.937c2.795-3.357,4.553-7.612,5.719-12.134
		c1.036-4.066,1.498-8.345,1.595-12.449h12.489c0.136,5.625,1.027,11.598,3.005,16.859c1.079,2.845,2.471,5.489,4.341,7.724
		c1.86,2.224,4.27,4.058,7.207,4.935c2.812,0.83,6.73,1.452,11.436,1.928c4.69,0.466,10.097,0.749,15.57,0.749
		c5.844-0.001,11.75-0.318,16.969-1.111c5.231-0.831,9.736-1.975,13.179-4.346c2.099-1.499,3.838-3.559,5.442-6
		c4.709-7.295,8.218-18.217,8.292-28.416l30.384-10.126c1.986-0.662,3.06-2.809,2.398-4.796
		C379.793,240.528,377.646,239.455,375.658,240.117z M239.675,279.294c-0.851,2.258-1.91,4.172-3.056,5.532
		c-1.157,1.37-2.324,2.168-3.568,2.543c-1.914,0.578-5.616,1.214-10.018,1.645c-4.418,0.441-9.608,0.713-14.817,0.713
		c-5.562,0.001-11.157-0.313-15.829-1.025c-4.658-0.675-8.43-1.913-9.943-3.042c-0.935-0.647-2.23-2.037-3.47-3.953
		c-3.806-5.748-7.111-16-7.064-24.389c-0.004-3.252,0.476-6.206,1.41-8.503c0.948-2.312,2.244-3.934,4.078-5.033
		c3.396-2.1,10.387-3.379,18.345-3.335c8.627-0.004,18.457,1.318,26.774,3.462c4.157,1.068,7.939,2.343,10.975,3.708
		c3.034,1.349,5.31,2.849,6.393,4.009c0.279,0.218,1.105,1.745,1.567,3.95c0.502,2.207,0.796,5.072,0.793,8.142
		C242.251,268.937,241.392,274.779,239.675,279.294z M336.566,274.692c-1.056,2.681-2.285,5.101-3.536,7.015
		c-1.24,1.916-2.535,3.306-3.47,3.954c-1.512,1.129-5.285,2.366-9.942,3.041c-4.672,0.712-10.268,1.027-15.827,1.025
		c-5.21,0-10.4-0.272-14.818-0.713c-4.402-0.431-8.102-1.068-10.018-1.648c-1.24-0.373-2.408-1.171-3.565-2.542
		c-1.729-2.036-3.226-5.34-4.186-9.137c-0.971-3.793-1.445-8.058-1.443-11.972c-0.002-3.07,0.292-5.936,0.793-8.141
		c0.463-2.207,1.29-3.73,1.568-3.947l-2.739-2.621l2.741,2.619c1.084-1.16,3.36-2.661,6.394-4.01
		c9.135-4.143,24.814-7.199,37.745-7.17c7.956-0.042,14.945,1.234,18.347,3.334c1.833,1.1,3.129,2.721,4.076,5.032
		c0.934,2.298,1.413,5.251,1.41,8.502C340.105,262.908,338.689,269.33,336.566,274.692z" style="fill: rgb(35, 34, 86);"></path>
</g>


<g>
	<path class="baseF" d="M108.201,533.344c40.732-34.165,89.236-68.948,89.236-68.948c5.883-8.091,13.898-17.454,19.078-28.177
		c2.234-4.624,2.484-9.956,0.527-14.702c-1.922-4.662-4.202-11.06-6.558-19.573c-5.32-19.24,3.213-30.846,14.14-22.097
		c10.924,8.749,25.062,28.523,41.77,15.67c14.053-10.809,52.055-38.559,64.908-42.415s16.671,12.021,3.818,22.945
		c-9.509,8.081-25.962,19.92-33.881,25.533c-2.123,1.505-2.224,4.498-0.377,6.328c13.997,13.866,15.08,51.668,5.763,62.318
		c-8.763,10.013-63.902,43.242-63.902,43.242S142.931,639.452,92.35,642.426c-50.58,2.977-35.477-29.501-36.659-56.452" style="fill: rgb(255, 223, 202);"></path>
	<path class="kirakiraB" d="M344.92,351.533c-11.474-10.849-25.023,1.546-36.622,7.902c-16.222,10.306-35.783,24.72-45.121,31.9
		c-15.795,11.461-27.271-13.053-40.229-18.61c-18.044-6.391-22.442,17.485-17.55,30.625c2.638,11.37,6.454,16.438,7.688,24.867
		c-1.829,12.391-12.943,22.624-19.395,32.374c-5.906,4.256-50.692,36.68-88.882,68.71c-5.237,4.246,1.547,12.619,6.783,8.087
		l-0.001-0.001c27.62-23.088,55.553-44.258,80.747-62.765c3.611-2.642,6.365-4.642,8.864-6.435
		c6.753-10.38,21.655-24.433,22.438-39.97c0.587-10.621-17.067-36.624-6.084-46.059c4.04,0.803,6.514,4.506,10.09,7.476
		c30.531,32.122,43.559,5.96,74.626-13.573c5.919-3.144,35.383-26.499,35.511-14.807c-0.115,15.673-43.041,30.68-43.505,43.578
		c1.11,8.202,8.75,11.185,10.434,21.193c3.262,12.193,4.795,30.219-2.059,40.729c-17.71,15.983-44.835,30.18-64.066,43.438
		c-19.37,22.655-97.076,120.105-146.545,126.967c-41.993,3.505-30.858-21.662-31.077-51.41c-0.14-6.851-10.977-6.379-10.544,0.451
		c0.651,13.188-3.172,27.658,0.083,41.013c3.965,15.95,19.313,20.914,35.672,20.679c54.877-0.071,129.202-94.899,160.085-130.394
		c7.064-4.184,38.218-23.625,49.727-31.982c9.452-6.765,18.083-12.174,20.281-24.069c3.759-18.238,1.646-41.724-10.846-56.366
		C319.84,392.256,359.825,375.453,344.92,351.533z" style="fill: rgb(35, 34, 86);"></path>
</g>

</g></svg>